#!OML:ASF H:\Terrain\Patient Classification 1\Terrain2\Thursday\justin.ASF
:FULLY-SPECIFIED
:DEGREES
2436
root 4.61231 17.9431 21.5362 1666.4 82.3055 -491.698
lowerback 8.28868 -0.253022 4.54314
upperback 2.10522 0.304265 3.83913
thorax -2.46802 0.19639 1.38765
lowerneck -14.2366 -3.10165 -9.30833
upperneck 35.5606 -1.66427 3.51251
head 14.88 -1.02366 2.95151
rclavicle -5.66536e-015 -3.10104e-014
rhumerus -34.9045 -10.5102 -78.3666
rradius 23.903
rwrist -7.183
rhand -18.7311 12.091
rfingers 7.12502
rthumb 7.56471 -17.7537
lclavicle -5.66536e-015 -3.10104e-014
lhumerus -39.2518 3.82003 85.1283
lradius 27.354
lwrist -5.50737
lhand -10.0267 20.3417
lfingers 7.12502
lthumb 15.9579 49.7044
rfemur -12.4149 -2.69402 29.4789
rtibia 24.1268
rfoot -8.77106 2.17136
rtoes 23.4468
lfemur -19.6638 5.27527 -11.2361
ltibia 78.4178
lfoot -1.74754 -12.2678
ltoes -20.2163
2437
root 4.70069 17.961 21.535 1666.96 82.0504 -490.874
lowerback 8.6487 -0.23734 4.85846
upperback 2.18256 0.386241 3.89279
thorax -2.58544 0.238688 1.25913
lowerneck -14.0356 -3.15968 -9.26614
upperneck 35.3831 -1.75344 3.41053
head 14.7564 -1.06758 2.88005
rclavicle -1.1778e-014 -2.78299e-014
rhumerus -34.4764 -10.5391 -78.3253
rradius 23.7668
rwrist -6.6284
rhand -18.8073 11.9889
rfingers 7.12502
rthumb 7.49111 -17.8584
lclavicle -1.1778e-014 -2.78299e-014
lhumerus -39.1005 3.99723 84.9363
lradius 27.7353
lwrist -4.92524
lhand -11.3097 21.1653
lfingers 7.12502
lthumb 14.7221 50.6226
rfemur -11.3741 -2.84561 29.7589
rtibia 23.3514
rfoot -8.68703 2.1805
rtoes 24.3234
lfemur -21.9042 5.6816 -10.8884
ltibia 81.8942
lfoot -3.8836 -10.707
ltoes -23.519
2438
root 4.79387 17.9919 21.5538 1663.15 82.4466 -494.073
lowerback 9.36568 -0.114693 3.90535
upperback 2.39647 0.504912 3.87799
thorax -2.76741 0.302848 1.76431
lowerneck -13.8781 -3.22081 -9.22141
upperneck 35.1633 -1.85404 3.32062
head 14.6242 -1.11515 2.8105
rclavicle 9.74045e-015 6.67916e-014
rhumerus -34.0134 -10.7105 -78.084
rradius 23.7015
rwrist -6.08541
rhand -18.7605 12.0546
rfingers 7.12502
rthumb 7.53636 -17.7912
lclavicle 9.74045e-015 6.67916e-014
lhumerus -38.966 4.51736 84.8018
lradius 28.16
lwrist -4.4981
lhand -11.7861 21.2335
lfingers 7.12502
lthumb 14.2631 50.7237
rfemur -9.72041 -3.08601 29.1969
rtibia 22.1434
rfoot -8.33036 2.14446
rtoes 24.5068
lfemur -23.7045 6.03841 -11.3621
ltibia 85.1357
lfoot -5.09278 -9.64311
ltoes -24.2008
2439
root 4.87785 18.0087 21.5804 1669.27 81.5829 -487.751
lowerback 9.63418 -0.0527322 4.75025
upperback 2.5148 0.727964 4.35316
thorax -2.7902 0.423623 1.75999
lowerneck -13.9874 -3.31449 -9.33657
upperneck 35.0917 -1.98056 3.38653
head 14.6302 -1.17688 2.83467
rclavicle 5.76476e-015 -4.77083e-015
rhumerus -33.5266 -9.95549 -78.2439
rradius 23.9581
rwrist -6.78293
rhand -18.5029 11.7739
rfingers 7.12502
rthumb 7.78501 -18.0628
lclavicle 5.76476e-015 -4.77083e-015
lhumerus -38.8211 4.81662 84.8337
lradius 28.7689
lwrist -3.73154
lhand -12.1671 21.0153
lfingers 7.12502
lthumb 13.896 50.531
rfemur -8.42306 -2.96296 30.7061
rtibia 20.4826
rfoot -7.87561 1.96359
rtoes 23.659
lfemur -26.3539 6.96825 -9.47542
ltibia 88.729
lfoot -6.03648 -9.80698
ltoes -20.9171
2440
root 5.02105 18.0464 21.5604 1670.6 81.6165 -486.276
lowerback 9.0645 0.109167 5.11433
upperback 2.79197 0.919577 4.35289
thorax -2.17998 0.532482 1.53663
lowerneck -14.0956 -3.35122 -9.43721
upperneck 35.0896 -2.04705 3.53619
head 14.6631 -1.19803 2.90403
rclavicle 2.01766e-014 8.74653e-015
rhumerus -33.101 -9.33412 -78.3575
rradius 24.2053
rwrist -7.49686
rhand -18.2179 11.6505
rfingers 7.12502
rthumb 8.05999 -18.1758
lclavicle 2.01766e-014 8.74653e-015
lhumerus -38.6366 4.83865 84.9183
lradius 29.2904
lwrist -2.90821
lhand -12.6764 20.5741
lfingers 7.12502
lthumb 13.4051 50.1228
rfemur -6.56221 -4.02203 30.6321
rtibia 18.3495
rfoot -7.5228 3.34395
rtoes 23.4735
lfemur -28.1359 7.5244 -9.40476
ltibia 91.8853
lfoot -7.46267 -9.25534
ltoes -17.4808
